<mxfile host="Electron" modified="2023-08-24T01:53:27.213Z" agent="Mozilla/5.0 (X11; Linux x86_64) AppleWebKit/537.36 (KHTML, like Gecko) draw.io/21.6.8 Chrome/114.0.5735.289 Electron/25.5.0 Safari/537.36" etag="8_JzelA5hbhYVZ0W92An" version="21.6.8" type="device" pages="3">
  <diagram id="6a731a19-8d31-9384-78a2-239565b7b9f0" name="UK-CustomerDrivenEventFlow">
    <mxGraphModel dx="1311" dy="1805" grid="1" gridSize="10" guides="1" tooltips="1" connect="1" arrows="1" fold="1" page="1" pageScale="1" pageWidth="1169" pageHeight="827" background="#003469" math="0" shadow="0">
      <root>
        <mxCell id="0" />
        <mxCell id="1" parent="0" />
        <mxCell id="CWSIZRz48cNkIkLfrMRX-2129" value="" style="rounded=1;whiteSpace=wrap;html=1;dashed=1;strokeColor=#FF0000;fillColor=none;strokeWidth=4;" vertex="1" parent="1">
          <mxGeometry x="190" y="90" width="970" height="720" as="geometry" />
        </mxCell>
        <mxCell id="CWSIZRz48cNkIkLfrMRX-2101" value="" style="rounded=1;whiteSpace=wrap;html=1;dashed=1;strokeColor=none;strokeWidth=2;fillColor=#E6E6E6;fontFamily=Verdana;fontSize=12;fontColor=#00BEF2" vertex="1" parent="1">
          <mxGeometry x="250" y="120" width="165" height="670" as="geometry" />
        </mxCell>
        <mxCell id="2019" value="" style="rounded=1;whiteSpace=wrap;html=1;dashed=1;strokeColor=none;strokeWidth=2;fillColor=#E6E6E6;fontFamily=Verdana;fontSize=12;fontColor=#00BEF2" parent="1" vertex="1">
          <mxGeometry x="10" y="120" width="165" height="670" as="geometry" />
        </mxCell>
        <mxCell id="2020" value="" style="rounded=1;whiteSpace=wrap;html=1;dashed=1;strokeColor=none;strokeWidth=2;fillColor=#E6E6E6;fontFamily=Verdana;fontSize=12;fontColor=#00BEF2" parent="1" vertex="1">
          <mxGeometry x="487.75" y="120" width="165" height="670" as="geometry" />
        </mxCell>
        <mxCell id="2021" value="" style="rounded=1;whiteSpace=wrap;html=1;dashed=1;strokeColor=none;strokeWidth=2;fillColor=#E6E6E6;fontFamily=Verdana;fontSize=12;fontColor=#00BEF2" parent="1" vertex="1">
          <mxGeometry x="720" y="120" width="165" height="670" as="geometry" />
        </mxCell>
        <mxCell id="2024" value="" style="rounded=1;whiteSpace=wrap;html=1;dashed=1;strokeColor=none;strokeWidth=2;fillColor=#E6E6E6;fontFamily=Verdana;fontSize=12;fontColor=#00BEF2" parent="1" vertex="1">
          <mxGeometry x="948.5" y="120" width="165" height="670" as="geometry" />
        </mxCell>
        <mxCell id="2025" value="Event" style="whiteSpace=wrap;html=1;dashed=1;strokeColor=none;strokeWidth=2;fillColor=#3399FF;fontFamily=Helvetica;fontSize=18;fontColor=#FFFFFF;fontStyle=1" parent="1" vertex="1">
          <mxGeometry x="10" y="120" width="165" height="60" as="geometry" />
        </mxCell>
        <mxCell id="2026" value="Compute" style="whiteSpace=wrap;html=1;dashed=1;strokeColor=none;strokeWidth=2;fillColor=#3399FF;fontFamily=Helvetica;fontSize=18;fontColor=#FFFFFF;fontStyle=1" parent="1" vertex="1">
          <mxGeometry x="487" y="120" width="165" height="60" as="geometry" />
        </mxCell>
        <mxCell id="2027" value="Data&lt;div&gt;Services&lt;/div&gt;" style="whiteSpace=wrap;html=1;dashed=1;strokeColor=none;strokeWidth=2;fillColor=#3399FF;fontFamily=Helvetica;fontSize=18;fontColor=#FFFFFF;fontStyle=1" parent="1" vertex="1">
          <mxGeometry x="720" y="120" width="165" height="60" as="geometry" />
        </mxCell>
        <mxCell id="2030" value="&amp;nbsp; &amp;nbsp;Presentation" style="whiteSpace=wrap;html=1;dashed=1;strokeColor=none;strokeWidth=2;fillColor=#3399FF;fontFamily=Helvetica;fontSize=18;fontColor=#FFFFFF;fontStyle=1" parent="1" vertex="1">
          <mxGeometry x="948.5" y="120" width="165" height="60" as="geometry" />
        </mxCell>
        <mxCell id="2032" value="" style="shape=mxgraph.arrows.two_way_arrow_horizontal;html=1;verticalLabelPosition=bottom;verticalAlign=top;strokeWidth=2;strokeColor=none;dashed=1;fillColor=#FFFFFF;fontFamily=Verdana;fontSize=12;fontColor=#00BEF2" parent="1" vertex="1">
          <mxGeometry x="415" y="130.5" width="75" height="39" as="geometry" />
        </mxCell>
        <mxCell id="2035" value="" style="shape=mxgraph.arrows.two_way_arrow_horizontal;html=1;verticalLabelPosition=bottom;verticalAlign=top;strokeWidth=2;strokeColor=none;dashed=1;fillColor=#FFFFFF;fontFamily=Verdana;fontSize=12;fontColor=#00BEF2" parent="1" vertex="1">
          <mxGeometry x="652" y="130.5" width="67" height="39" as="geometry" />
        </mxCell>
        <mxCell id="2042" value="" style="verticalLabelPosition=bottom;html=1;verticalAlign=top;strokeColor=none;fillColor=#3399FF;shape=mxgraph.azure.github_code;dashed=1;fontSize=14;fontColor=#004C99" parent="1" vertex="1">
          <mxGeometry x="90" y="602.5" width="50" height="50" as="geometry" />
        </mxCell>
        <mxCell id="2043" value="" style="verticalLabelPosition=bottom;html=1;verticalAlign=top;strokeColor=none;fillColor=#3399FF;shape=mxgraph.azure.dropbox_code_source;dashed=1;fontSize=14;fontColor=#004C99" parent="1" vertex="1">
          <mxGeometry x="30" y="605" width="50" height="47.5" as="geometry" />
        </mxCell>
        <mxCell id="2044" value="Repositories" style="text;html=1;strokeColor=none;fillColor=none;align=center;verticalAlign=middle;whiteSpace=wrap;overflow=hidden;dashed=1;fontSize=14;fontColor=#004C99" parent="1" vertex="1">
          <mxGeometry x="32.5" y="660" width="120" height="20" as="geometry" />
        </mxCell>
        <mxCell id="2048" value="Security Analytics" style="rounded=1;whiteSpace=wrap;html=1;dashed=1;strokeColor=none;strokeWidth=2;fillColor=#FFFFFF;fontFamily=Helvetica;fontSize=14;fontColor=#FFB366;opacity=75;verticalAlign=top;fontStyle=1" parent="1" vertex="1">
          <mxGeometry x="733" y="190" width="140" height="580" as="geometry" />
        </mxCell>
        <mxCell id="2064" value="Subscriptions" style="rounded=1;whiteSpace=wrap;html=1;dashed=1;strokeColor=none;strokeWidth=2;fillColor=#FFFFFF;fontFamily=Helvetica;fontSize=14;fontColor=#FFB366;opacity=75;verticalAlign=top;fontStyle=1" parent="1" vertex="1">
          <mxGeometry x="262.5" y="492" width="140" height="110.5" as="geometry" />
        </mxCell>
        <mxCell id="2065" value="Alerts" style="verticalLabelPosition=bottom;html=1;verticalAlign=top;strokeColor=none;fillColor=#3399FF;shape=mxgraph.azure.queue_generic;dashed=1;fontFamily=Helvetica;fontSize=14;fontColor=#004C99" parent="1" vertex="1">
          <mxGeometry x="296.25" y="527" width="72.5" height="30" as="geometry" />
        </mxCell>
        <mxCell id="2068" value="Cloud&lt;div&gt;Services&lt;/div&gt;" style="rounded=1;whiteSpace=wrap;html=1;dashed=1;strokeColor=none;strokeWidth=2;fillColor=#FFFFFF;fontFamily=Helvetica;fontSize=14;fontColor=#FFB366;opacity=75;verticalAlign=top;fontStyle=1" parent="1" vertex="1">
          <mxGeometry x="500.25" y="196" width="140" height="223" as="geometry" />
        </mxCell>
        <mxCell id="2071" value="Portal" style="verticalLabelPosition=bottom;html=1;verticalAlign=top;strokeColor=none;fillColor=#3399FF;shape=mxgraph.azure.laptop;dashed=1;fontFamily=Helvetica;fontSize=14;fontColor=#004C99" parent="1" vertex="1">
          <mxGeometry x="1010" y="415" width="50" height="30" as="geometry" />
        </mxCell>
        <mxCell id="2075" value="" style="arrow;html=1;endArrow=block;endFill=1;strokeColor=none;strokeWidth=4;fontFamily=Helvetica;fontSize=36;fontColor=#FFB366;fillColor=#FFB366;" parent="1" edge="1">
          <mxGeometry width="100" height="100" relative="1" as="geometry">
            <mxPoint x="170" y="440" as="sourcePoint" />
            <mxPoint x="250" y="440" as="targetPoint" />
          </mxGeometry>
        </mxCell>
        <mxCell id="2076" value="" style="arrow;html=1;endArrow=block;endFill=1;strokeColor=none;strokeWidth=4;fontFamily=Helvetica;fontSize=36;fontColor=#FFB366;fillColor=#FFB366;opacity=100" parent="1" edge="1">
          <mxGeometry width="100" height="100" relative="1" as="geometry">
            <mxPoint x="645.5" y="440" as="sourcePoint" />
            <mxPoint x="725.5" y="440" as="targetPoint" />
          </mxGeometry>
        </mxCell>
        <mxCell id="2080" value="" style="arrow;html=1;endArrow=block;endFill=1;strokeColor=none;strokeWidth=4;fontFamily=Helvetica;fontSize=36;fontColor=#FFB366;fillColor=#FFB366;" parent="1" edge="1">
          <mxGeometry width="100" height="100" relative="1" as="geometry">
            <mxPoint x="887" y="438" as="sourcePoint" />
            <mxPoint x="950" y="438" as="targetPoint" />
          </mxGeometry>
        </mxCell>
        <mxCell id="CWSIZRz48cNkIkLfrMRX-2085" value="Event Hub" style="image;sketch=0;aspect=fixed;html=1;points=[];align=center;fontSize=12;image=img/lib/mscae/Event_Hubs.svg;imageBackground=none;labelBackgroundColor=none;" vertex="1" parent="1">
          <mxGeometry x="545.5" y="266" width="48" height="50" as="geometry" />
        </mxCell>
        <mxCell id="CWSIZRz48cNkIkLfrMRX-2088" value="Cloud&lt;div&gt;Services&lt;/div&gt;" style="rounded=1;whiteSpace=wrap;html=1;dashed=1;strokeColor=none;strokeWidth=2;fillColor=#FFFFFF;fontFamily=Helvetica;fontSize=14;fontColor=#FFB366;opacity=75;verticalAlign=top;fontStyle=1" vertex="1" parent="1">
          <mxGeometry x="500.25" y="553" width="140" height="223" as="geometry" />
        </mxCell>
        <mxCell id="CWSIZRz48cNkIkLfrMRX-2089" value="" style="image;sketch=0;aspect=fixed;html=1;points=[];align=center;fontSize=12;image=img/lib/mscae/Key_Vaults.svg;" vertex="1" parent="1">
          <mxGeometry x="546" y="349" width="48" height="50" as="geometry" />
        </mxCell>
        <mxCell id="CWSIZRz48cNkIkLfrMRX-2090" value="Event Hub" style="image;sketch=0;aspect=fixed;html=1;points=[];align=center;fontSize=12;image=img/lib/mscae/Event_Hubs.svg;imageBackground=none;labelBackgroundColor=none;" vertex="1" parent="1">
          <mxGeometry x="545.5" y="605" width="48" height="50" as="geometry" />
        </mxCell>
        <mxCell id="CWSIZRz48cNkIkLfrMRX-2091" value="" style="image;sketch=0;aspect=fixed;html=1;points=[];align=center;fontSize=12;image=img/lib/mscae/Key_Vaults.svg;" vertex="1" parent="1">
          <mxGeometry x="545.5" y="680" width="48" height="50" as="geometry" />
        </mxCell>
        <mxCell id="CWSIZRz48cNkIkLfrMRX-2093" value="" style="image;sketch=0;aspect=fixed;html=1;points=[];align=center;fontSize=12;image=img/lib/mscae/VM_Images.svg;" vertex="1" parent="1">
          <mxGeometry x="778" y="316" width="50" height="46" as="geometry" />
        </mxCell>
        <mxCell id="CWSIZRz48cNkIkLfrMRX-2092" value="" style="image;sketch=0;aspect=fixed;html=1;points=[];align=center;fontSize=12;image=img/lib/mscae/Cloud_Service.svg;" vertex="1" parent="1">
          <mxGeometry x="800" y="289" width="50" height="42" as="geometry" />
        </mxCell>
        <mxCell id="CWSIZRz48cNkIkLfrMRX-2094" value="" style="image;sketch=0;aspect=fixed;html=1;points=[];align=center;fontSize=12;image=img/lib/mscae/VM_Images.svg;" vertex="1" parent="1">
          <mxGeometry x="778" y="500" width="50" height="46" as="geometry" />
        </mxCell>
        <mxCell id="CWSIZRz48cNkIkLfrMRX-2095" value="" style="image;sketch=0;aspect=fixed;html=1;points=[];align=center;fontSize=12;image=img/lib/mscae/Cloud_Service.svg;" vertex="1" parent="1">
          <mxGeometry x="800" y="470" width="50" height="42" as="geometry" />
        </mxCell>
        <mxCell id="CWSIZRz48cNkIkLfrMRX-2096" value="" style="shape=image;verticalLabelPosition=bottom;labelBackgroundColor=default;verticalAlign=top;aspect=fixed;imageAspect=0;image=https://dirteam.com/sander/wp-content/uploads/sites/2/2020/07/MicrosoftGraphAPI.png;" vertex="1" parent="1">
          <mxGeometry x="255" y="331" width="155" height="77.5" as="geometry" />
        </mxCell>
        <mxCell id="CWSIZRz48cNkIkLfrMRX-2097" value="Unknown Cyber Azure Customer Driven Event Flow" style="text;html=1;strokeColor=none;fillColor=none;align=center;verticalAlign=middle;whiteSpace=wrap;overflow=hidden;dashed=1;fontSize=36;fontColor=#FFFFFF;fontFamily=Helvetica;fontStyle=1" vertex="1" parent="1">
          <mxGeometry x="43" y="20" width="1060" height="50" as="geometry" />
        </mxCell>
        <mxCell id="CWSIZRz48cNkIkLfrMRX-2098" value="" style="arrow;html=1;endArrow=block;endFill=1;strokeColor=none;strokeWidth=4;fontFamily=Helvetica;fontSize=36;fontColor=#FFB366;fillColor=#FFB366;" edge="1" parent="1">
          <mxGeometry width="100" height="100" relative="1" as="geometry">
            <mxPoint x="335" y="410" as="sourcePoint" />
            <mxPoint x="335" y="490" as="targetPoint" />
            <Array as="points">
              <mxPoint x="415" y="-100" />
            </Array>
          </mxGeometry>
        </mxCell>
        <mxCell id="CWSIZRz48cNkIkLfrMRX-2102" value="Messaging" style="whiteSpace=wrap;html=1;dashed=1;strokeColor=none;strokeWidth=2;fillColor=#3399FF;fontFamily=Helvetica;fontSize=18;fontColor=#FFFFFF;fontStyle=1" vertex="1" parent="1">
          <mxGeometry x="250" y="120" width="165" height="60" as="geometry" />
        </mxCell>
        <mxCell id="CWSIZRz48cNkIkLfrMRX-2103" value="" style="arrow;html=1;endArrow=block;endFill=1;strokeColor=none;strokeWidth=4;fontFamily=Helvetica;fontSize=36;fontColor=#FFB366;fillColor=#FFB366;" edge="1" parent="1">
          <mxGeometry width="100" height="100" relative="1" as="geometry">
            <mxPoint x="410" y="440" as="sourcePoint" />
            <mxPoint x="490" y="440" as="targetPoint" />
          </mxGeometry>
        </mxCell>
        <mxCell id="CWSIZRz48cNkIkLfrMRX-2104" value="" style="shape=mxgraph.arrows.two_way_arrow_horizontal;html=1;verticalLabelPosition=bottom;verticalAlign=top;strokeWidth=2;strokeColor=none;dashed=1;fillColor=#FFFFFF;fontFamily=Verdana;fontSize=12;fontColor=#00BEF2" vertex="1" parent="1">
          <mxGeometry x="881.5" y="130.5" width="67" height="39" as="geometry" />
        </mxCell>
        <mxCell id="CWSIZRz48cNkIkLfrMRX-2106" value="" style="html=1;verticalLabelPosition=bottom;align=center;labelBackgroundColor=#ffffff;verticalAlign=top;strokeWidth=2;strokeColor=#0080F0;shadow=0;dashed=0;shape=mxgraph.ios7.icons.mail;" vertex="1" parent="1">
          <mxGeometry x="69" y="331" width="47" height="34" as="geometry" />
        </mxCell>
        <mxCell id="CWSIZRz48cNkIkLfrMRX-2118" value="&lt;font color=&quot;#0000ff&quot;&gt;Email&lt;/font&gt;" style="text;html=1;strokeColor=none;fillColor=none;align=center;verticalAlign=middle;whiteSpace=wrap;rounded=0;" vertex="1" parent="1">
          <mxGeometry x="62.5" y="362" width="60" height="30" as="geometry" />
        </mxCell>
        <mxCell id="CWSIZRz48cNkIkLfrMRX-2123" value="" style="image;aspect=fixed;perimeter=ellipsePerimeter;html=1;align=center;shadow=0;dashed=0;spacingTop=3;image=img/lib/active_directory/users.svg;" vertex="1" parent="1">
          <mxGeometry x="76" y="236.25" width="33" height="50" as="geometry" />
        </mxCell>
        <mxCell id="CWSIZRz48cNkIkLfrMRX-2124" value="" style="image;aspect=fixed;perimeter=ellipsePerimeter;html=1;align=center;shadow=0;dashed=0;spacingTop=3;image=img/lib/active_directory/users.svg;" vertex="1" parent="1">
          <mxGeometry x="69" y="506" width="33" height="50" as="geometry" />
        </mxCell>
        <mxCell id="CWSIZRz48cNkIkLfrMRX-2125" value="" style="endArrow=classic;html=1;rounded=0;entryX=0.511;entryY=-0.176;entryDx=0;entryDy=0;entryPerimeter=0;" edge="1" parent="1" target="CWSIZRz48cNkIkLfrMRX-2106">
          <mxGeometry width="50" height="50" relative="1" as="geometry">
            <mxPoint x="100" y="290" as="sourcePoint" />
            <mxPoint x="590" y="370" as="targetPoint" />
          </mxGeometry>
        </mxCell>
        <mxCell id="CWSIZRz48cNkIkLfrMRX-2126" value="" style="endArrow=classic;html=1;rounded=0;exitX=1;exitY=1;exitDx=0;exitDy=0;" edge="1" parent="1" source="CWSIZRz48cNkIkLfrMRX-2124" target="2042">
          <mxGeometry width="50" height="50" relative="1" as="geometry">
            <mxPoint x="110" y="300" as="sourcePoint" />
            <mxPoint x="103" y="335" as="targetPoint" />
          </mxGeometry>
        </mxCell>
        <mxCell id="CWSIZRz48cNkIkLfrMRX-2128" value="" style="endArrow=classic;html=1;rounded=0;exitX=0.25;exitY=1;exitDx=0;exitDy=0;entryX=0.7;entryY=0.021;entryDx=0;entryDy=0;entryPerimeter=0;" edge="1" parent="1" source="CWSIZRz48cNkIkLfrMRX-2124" target="2043">
          <mxGeometry width="50" height="50" relative="1" as="geometry">
            <mxPoint x="107" y="559" as="sourcePoint" />
            <mxPoint x="119" y="613" as="targetPoint" />
          </mxGeometry>
        </mxCell>
        <mxCell id="CWSIZRz48cNkIkLfrMRX-2130" value="&lt;font size=&quot;1&quot; color=&quot;#ffff00&quot;&gt;&lt;b style=&quot;font-size: 24px;&quot;&gt;Azure&lt;/b&gt;&lt;/font&gt;" style="text;html=1;strokeColor=none;fillColor=none;align=center;verticalAlign=middle;whiteSpace=wrap;rounded=0;rotation=0;" vertex="1" parent="1">
          <mxGeometry x="655.5" y="90" width="60" height="30" as="geometry" />
        </mxCell>
      </root>
    </mxGraphModel>
  </diagram>
  <diagram id="EvSObKgQY2XZAdKPUGN1" name="CustomerRGinUKTenant">
    <mxGraphModel dx="1114" dy="831" grid="1" gridSize="10" guides="1" tooltips="1" connect="1" arrows="1" fold="1" page="1" pageScale="1" pageWidth="850" pageHeight="1100" math="0" shadow="0">
      <root>
        <mxCell id="0" />
        <mxCell id="1" parent="0" />
        <mxCell id="0A3lQJmccfmv-MK4jnA3-3" value="" style="rounded=1;whiteSpace=wrap;html=1;dashed=1;dashPattern=12 12;rotation=90;" vertex="1" parent="1">
          <mxGeometry x="330" y="120" width="170" height="410" as="geometry" />
        </mxCell>
        <mxCell id="0A3lQJmccfmv-MK4jnA3-1" value="" style="image;sketch=0;aspect=fixed;html=1;points=[];align=center;fontSize=12;image=img/lib/mscae/Event_Hubs.svg;" vertex="1" parent="1">
          <mxGeometry x="290" y="280" width="76.8" height="80" as="geometry" />
        </mxCell>
        <mxCell id="0A3lQJmccfmv-MK4jnA3-2" value="" style="image;sketch=0;aspect=fixed;html=1;points=[];align=center;fontSize=12;image=img/lib/mscae/Key_Vaults.svg;" vertex="1" parent="1">
          <mxGeometry x="480" y="285" width="67.2" height="70" as="geometry" />
        </mxCell>
      </root>
    </mxGraphModel>
  </diagram>
  <diagram id="OiOOQQRRCcBFSIT4viin" name="CustomerTenant-UKTenant Resources">
    <mxGraphModel dx="1114" dy="831" grid="1" gridSize="10" guides="1" tooltips="1" connect="1" arrows="1" fold="1" page="1" pageScale="1" pageWidth="850" pageHeight="1100" math="0" shadow="0">
      <root>
        <mxCell id="0" />
        <mxCell id="1" parent="0" />
      </root>
    </mxGraphModel>
  </diagram>
</mxfile>
